<svg width="68" height="69" viewBox="0 0 68 69" fill="none" xmlns="http://www.w3.org/2000/svg">
<ellipse cx="34" cy="34.25" rx="34" ry="34.25" fill="url(#paint0_linear_45_7)"/>
<path d="M31.2814 7.82559C32.3587 5.5171 35.6413 5.5171 36.7186 7.82559L43.5455 22.455C43.8211 23.0456 44.2816 23.5304 44.8572 23.8361L59.0096 31.3503C61.1338 32.4782 61.1338 35.5218 59.0096 36.6497L44.8572 44.1639C44.2816 44.4696 43.8211 44.9544 43.5455 45.545L36.7186 60.1744C35.6413 62.4829 32.3587 62.4829 31.2814 60.1744L24.4545 45.545C24.1789 44.9544 23.7184 44.4696 23.1428 44.1639L8.99041 36.6497C6.86621 35.5218 6.86621 32.4782 8.99041 31.3503L23.1428 23.8361C23.7184 23.5304 24.1789 23.0456 24.4545 22.455L31.2814 7.82559Z" fill="#0D1014"/>
<defs>
<linearGradient id="paint0_linear_45_7" x1="34" y1="0" x2="34" y2="68.5" gradientUnits="userSpaceOnUse">
<stop stop-color="#2A6EDB"/>
<stop offset="1" stop-color="#7AAFCF"/>
</linearGradient>
</defs>
</svg>
