<svg width="384" height="154" viewBox="0 0 384 154" fill="none" xmlns="http://www.w3.org/2000/svg">
<path d="M43.008 117.64C39.5093 117.64 36.864 115.677 35.072 111.752L3.456 35.08C3.2 34.3973 3.072 33.672 3.072 32.904C3.072 31.1973 3.584 29.7893 4.608 28.68C5.632 27.5707 7.04 27.016 8.832 27.016C11.392 27.016 13.2267 28.3387 14.336 30.984L44.416 105.992L74.496 30.984C75.6053 28.3387 77.44 27.016 80 27.016C81.792 27.016 83.2 27.5707 84.224 28.68C85.248 29.7893 85.76 31.1973 85.76 32.904C85.76 33.672 85.632 34.3973 85.376 35.08L53.76 111.752C51.968 115.677 49.3227 117.64 45.824 117.64H43.008ZM108.627 118.28C104.958 118.28 101.502 117.512 98.259 115.976C95.1017 114.44 92.5417 112.264 90.579 109.448C88.7017 106.547 87.763 103.091 87.763 99.08C87.763 93.0213 90.1523 88.072 94.931 84.232C99.795 80.3067 107.219 78.344 117.203 78.344H132.691V77.32C132.691 71.6027 131.283 67.5493 128.467 65.16C125.651 62.6853 121.342 61.448 115.539 61.448C111.955 61.448 108.798 61.7893 106.067 62.472C103.422 63.0693 100.904 63.752 98.515 64.52C97.8323 64.6907 97.2777 64.776 96.851 64.776C95.571 64.776 94.4617 64.3067 93.523 63.368C92.5843 62.4293 92.115 61.2773 92.115 59.912C92.115 57.608 93.2243 55.9867 95.443 55.048C98.4297 53.768 101.715 52.7013 105.299 51.848C108.968 50.9093 113.064 50.44 117.587 50.44C123.816 50.44 128.894 51.6773 132.819 54.152C136.744 56.6267 139.646 59.784 141.523 63.624C143.4 67.464 144.339 71.4747 144.339 75.656V111.88C144.339 113.501 143.742 114.867 142.547 115.976C141.438 117.085 140.072 117.64 138.451 117.64C136.83 117.64 135.464 117.085 134.355 115.976C133.246 114.867 132.691 113.501 132.691 111.88V108.552C130.387 110.941 127.315 113.16 123.475 115.208C119.635 117.256 114.686 118.28 108.627 118.28ZM112.979 108.04C116.99 108.04 120.744 107.059 124.243 105.096C127.742 103.133 130.558 100.915 132.691 98.44V87.688H118.739C112.766 87.688 108.03 88.456 104.531 89.992C101.118 91.528 99.411 94.1307 99.411 97.8C99.411 100.531 100.35 102.92 102.227 104.968C104.19 107.016 107.774 108.04 112.979 108.04ZM169.622 117.64C168.001 117.64 166.635 117.085 165.526 115.976C164.417 114.867 163.862 113.501 163.862 111.88V28.808C163.862 27.1013 164.417 25.6933 165.526 24.584C166.635 23.4747 168.001 22.92 169.622 22.92C171.329 22.92 172.737 23.4747 173.846 24.584C174.955 25.6933 175.51 27.1013 175.51 28.808V111.88C175.51 113.501 174.955 114.867 173.846 115.976C172.737 117.085 171.329 117.64 169.622 117.64ZM224.921 118.28C214.51 118.28 206.361 115.336 200.473 109.448C194.67 103.475 191.769 95.112 191.769 84.36C191.769 78.5573 192.836 73.096 194.969 67.976C197.102 62.7707 200.43 58.5467 204.953 55.304C209.476 52.0613 215.278 50.44 222.361 50.44C228.932 50.44 234.478 51.976 239.001 55.048C243.524 58.0347 246.937 61.96 249.241 66.824C251.63 71.688 252.825 76.9787 252.825 82.696C252.825 84.3173 252.27 85.6827 251.161 86.792C250.137 87.9013 248.729 88.456 246.937 88.456H203.545C204.228 94.1733 206.404 98.7813 210.073 102.28C213.742 105.693 219.033 107.4 225.945 107.4C229.785 107.4 233.028 107.059 235.673 106.376C238.318 105.608 240.836 104.627 243.225 103.432C243.908 103.091 244.676 102.92 245.529 102.92C246.894 102.92 248.089 103.389 249.113 104.328C250.137 105.267 250.649 106.461 250.649 107.912C250.649 108.936 250.308 109.875 249.625 110.728C249.028 111.496 248.26 112.136 247.321 112.648C244.505 114.269 241.433 115.635 238.105 116.744C234.862 117.768 230.468 118.28 224.921 118.28ZM203.545 78.984H241.305C241.049 74.5467 239.897 70.9627 237.849 68.232C235.886 65.5013 233.497 63.496 230.681 62.216C227.865 60.936 225.092 60.296 222.361 60.296C219.63 60.296 216.857 60.936 214.041 62.216C211.225 63.496 208.836 65.5013 206.873 68.232C204.91 70.9627 203.801 74.5467 203.545 78.984ZM273.997 117.64C272.376 117.64 271.01 117.085 269.901 115.976C268.792 114.867 268.237 113.501 268.237 111.88V56.968C268.237 55.3467 268.792 53.9813 269.901 52.872C271.01 51.6773 272.376 51.08 273.997 51.08C275.618 51.08 276.984 51.6773 278.093 52.872C279.288 53.9813 279.885 55.3467 279.885 56.968V62.472C282.189 59.4 285.005 56.6267 288.333 54.152C291.661 51.6773 295.544 50.44 299.981 50.44H300.621C302.242 50.44 303.565 50.9947 304.589 52.104C305.698 53.2133 306.253 54.5787 306.253 56.2C306.253 57.8213 305.698 59.144 304.589 60.168C303.48 61.192 302.072 61.704 300.365 61.704H299.725C295.544 61.704 291.746 62.7707 288.333 64.904C284.92 66.952 282.104 69.64 279.885 72.968V111.88C279.885 113.501 279.288 114.867 278.093 115.976C276.984 117.085 275.618 117.64 273.997 117.64Z" fill="url(#paint0_linear_40_65)"/>
<path d="M344 55C359.982 55 373 68.0611 373 84.25C373 100.439 359.982 113.5 344 113.5C328.018 113.5 315 100.439 315 84.25C315 68.0611 328.018 55 344 55Z" stroke="url(#paint1_linear_40_65)" stroke-width="10"/>
<path d="M341.278 67.8792C342.352 65.56 345.648 65.56 346.722 67.8792L350.225 75.4437C350.499 76.0349 350.957 76.5209 351.532 76.8283L359.057 80.8549C361.17 81.9854 361.17 85.0146 359.057 86.1451L351.532 90.1717C350.957 90.4791 350.499 90.9651 350.225 91.5563L346.722 99.1208C345.648 101.44 342.352 101.44 341.278 99.1208L337.775 91.5563C337.501 90.9651 337.043 90.4791 336.468 90.1717L328.943 86.1451C326.83 85.0146 326.83 81.9854 328.943 80.8549L336.468 76.8283C337.043 76.5209 337.501 76.0349 337.775 75.4437L341.278 67.8792Z" fill="url(#paint2_linear_40_65)"/>
<defs>
<linearGradient id="paint0_linear_40_65" x1="191.544" y1="35.2672" x2="191.544" y2="156.939" gradientUnits="userSpaceOnUse">
<stop stop-color="#2A6EDB"/>
<stop offset="1" stop-color="#7AAFCF"/>
</linearGradient>
<linearGradient id="paint1_linear_40_65" x1="344" y1="50" x2="344" y2="118.5" gradientUnits="userSpaceOnUse">
<stop stop-color="#2A6EDB"/>
<stop offset="1" stop-color="#7AAFCF"/>
</linearGradient>
<linearGradient id="paint2_linear_40_65" x1="344" y1="66.5" x2="344" y2="100.5" gradientUnits="userSpaceOnUse">
<stop stop-color="#2A6EDB"/>
<stop offset="1" stop-color="#7AAFCF"/>
</linearGradient>
</defs>
</svg>
