<svg width="376" height="97" viewBox="0 0 376 97" fill="none" xmlns="http://www.w3.org/2000/svg">
<path d="M43.008 95.64C39.5093 95.64 36.864 93.6773 35.072 89.752L3.456 13.08C3.2 12.3973 3.072 11.672 3.072 10.904C3.072 9.19733 3.584 7.78933 4.608 6.67999C5.632 5.57066 7.04 5.016 8.832 5.016C11.392 5.016 13.2267 6.33866 14.336 8.98399L44.416 83.992L74.496 8.98399C75.6053 6.33866 77.44 5.016 80 5.016C81.792 5.016 83.2 5.57066 84.224 6.67999C85.248 7.78933 85.76 9.19733 85.76 10.904C85.76 11.672 85.632 12.3973 85.376 13.08L53.76 89.752C51.968 93.6773 49.3227 95.64 45.824 95.64H43.008ZM108.627 96.28C104.958 96.28 101.502 95.512 98.259 93.976C95.1017 92.44 92.5417 90.264 90.579 87.448C88.7017 84.5467 87.763 81.0907 87.763 77.08C87.763 71.0213 90.1523 66.072 94.931 62.232C99.795 58.3067 107.219 56.344 117.203 56.344H132.691V55.32C132.691 49.6027 131.283 45.5493 128.467 43.16C125.651 40.6853 121.342 39.448 115.539 39.448C111.955 39.448 108.798 39.7893 106.067 40.472C103.422 41.0693 100.904 41.752 98.515 42.52C97.8323 42.6907 97.2777 42.776 96.851 42.776C95.571 42.776 94.4617 42.3067 93.523 41.368C92.5843 40.4293 92.115 39.2773 92.115 37.912C92.115 35.608 93.2243 33.9867 95.443 33.048C98.4297 31.768 101.715 30.7013 105.299 29.848C108.968 28.9093 113.064 28.44 117.587 28.44C123.816 28.44 128.894 29.6773 132.819 32.152C136.744 34.6267 139.646 37.784 141.523 41.624C143.4 45.464 144.339 49.4747 144.339 53.656V89.88C144.339 91.5013 143.742 92.8667 142.547 93.976C141.438 95.0853 140.072 95.64 138.451 95.64C136.83 95.64 135.464 95.0853 134.355 93.976C133.246 92.8667 132.691 91.5013 132.691 89.88V86.552C130.387 88.9413 127.315 91.16 123.475 93.208C119.635 95.256 114.686 96.28 108.627 96.28ZM112.979 86.04C116.99 86.04 120.744 85.0587 124.243 83.096C127.742 81.1333 130.558 78.9147 132.691 76.44V65.688H118.739C112.766 65.688 108.03 66.456 104.531 67.992C101.118 69.528 99.411 72.1307 99.411 75.8C99.411 78.5307 100.35 80.92 102.227 82.968C104.19 85.016 107.774 86.04 112.979 86.04ZM169.622 95.64C168.001 95.64 166.635 95.0853 165.526 93.976C164.417 92.8667 163.862 91.5013 163.862 89.88V6.808C163.862 5.10133 164.417 3.69333 165.526 2.58399C166.635 1.47466 168.001 0.919998 169.622 0.919998C171.329 0.919998 172.737 1.47466 173.846 2.58399C174.955 3.69333 175.51 5.10133 175.51 6.808V89.88C175.51 91.5013 174.955 92.8667 173.846 93.976C172.737 95.0853 171.329 95.64 169.622 95.64ZM224.921 96.28C214.51 96.28 206.361 93.336 200.473 87.448C194.67 81.4747 191.769 73.112 191.769 62.36C191.769 56.5573 192.836 51.096 194.969 45.976C197.102 40.7707 200.43 36.5467 204.953 33.304C209.476 30.0613 215.278 28.44 222.361 28.44C228.932 28.44 234.478 29.976 239.001 33.048C243.524 36.0347 246.937 39.96 249.241 44.824C251.63 49.688 252.825 54.9787 252.825 60.696C252.825 62.3173 252.27 63.6827 251.161 64.792C250.137 65.9013 248.729 66.456 246.937 66.456H203.545C204.228 72.1733 206.404 76.7813 210.073 80.28C213.742 83.6933 219.033 85.4 225.945 85.4C229.785 85.4 233.028 85.0587 235.673 84.376C238.318 83.608 240.836 82.6267 243.225 81.432C243.908 81.0907 244.676 80.92 245.529 80.92C246.894 80.92 248.089 81.3893 249.113 82.328C250.137 83.2667 250.649 84.4613 250.649 85.912C250.649 86.936 250.308 87.8747 249.625 88.728C249.028 89.496 248.26 90.136 247.321 90.648C244.505 92.2693 241.433 93.6347 238.105 94.744C234.862 95.768 230.468 96.28 224.921 96.28ZM203.545 56.984H241.305C241.049 52.5467 239.897 48.9627 237.849 46.232C235.886 43.5013 233.497 41.496 230.681 40.216C227.865 38.936 225.092 38.296 222.361 38.296C219.63 38.296 216.857 38.936 214.041 40.216C211.225 41.496 208.836 43.5013 206.873 46.232C204.91 48.9627 203.801 52.5467 203.545 56.984ZM273.997 95.64C272.376 95.64 271.01 95.0853 269.901 93.976C268.792 92.8667 268.237 91.5013 268.237 89.88V34.968C268.237 33.3467 268.792 31.9813 269.901 30.872C271.01 29.6773 272.376 29.08 273.997 29.08C275.618 29.08 276.984 29.6773 278.093 30.872C279.288 31.9813 279.885 33.3467 279.885 34.968V40.472C282.189 37.4 285.005 34.6267 288.333 32.152C291.661 29.6773 295.544 28.44 299.981 28.44H300.621C302.242 28.44 303.565 28.9947 304.589 30.104C305.698 31.2133 306.253 32.5787 306.253 34.2C306.253 35.8213 305.698 37.144 304.589 38.168C303.48 39.192 302.072 39.704 300.365 39.704H299.725C295.544 39.704 291.746 40.7707 288.333 42.904C284.92 44.952 282.104 47.64 279.885 50.968V89.88C279.885 91.5013 279.288 92.8667 278.093 93.976C276.984 95.0853 275.618 95.64 273.997 95.64Z" fill="white"/>
<path d="M342 32C357.982 32 371 45.0611 371 61.25C371 77.4389 357.982 90.5 342 90.5C326.018 90.5 313 77.4389 313 61.25C313 45.0611 326.018 32 342 32Z" stroke="white" stroke-width="10"/>
<path d="M339.345 44.8353C340.421 42.5249 343.707 42.5249 344.783 44.8353L348.308 52.3989C348.583 52.9896 349.043 53.4747 349.619 53.7806L357.146 57.783C359.268 58.9113 359.268 61.9523 357.146 63.0807L349.619 67.083C349.043 67.389 348.583 67.874 348.308 68.4647L344.783 76.0283C343.707 78.3387 340.421 78.3387 339.345 76.0283L335.82 68.4647C335.545 67.874 335.085 67.389 334.509 67.083L326.982 63.0807C324.86 61.9523 324.86 58.9113 326.982 57.783L334.509 53.7806C335.085 53.4747 335.545 52.9896 335.82 52.3989L339.345 44.8353Z" fill="white"/>
</svg>
